<?xml version="1.0" encoding="UTF-8" standalone="no"?>
<svg
   xmlns:dc="http://purl.org/dc/elements/1.1/"
   xmlns:cc="http://creativecommons.org/ns#"
   xmlns:rdf="http://www.w3.org/1999/02/22-rdf-syntax-ns#"
   xmlns:svg="http://www.w3.org/2000/svg"
   xmlns="http://www.w3.org/2000/svg"
   xmlns:sodipodi="http://sodipodi.sourceforge.net/DTD/sodipodi-0.dtd"
   xmlns:inkscape="http://www.inkscape.org/namespaces/inkscape"
   viewBox="-80 -80 300 820"
   version="1.1">
  <sodipodi:namedview showgrid="true">
    <inkscape:grid
       type="xygrid"
       empspacing="4"
       spacingx="5"
       spacingy="5" />
  </sodipodi:namedview>
  <rect stroke="black" stroke-width="4" fill="#ffffb4" fill-opacity="0.78431374" x="0" y="-20" width="520" height="380"/>
    <text id="label" fill="#000000" font-size="24" text-anchor="middle" x="70" y="-20">Label</text>
	
  <g>
    <circle fill="#0000b2" id="pin:Rs1" cx="0" cy="0" r="3"/>
    <text fill="#808080" font-size="18" x="4" y="6">Rs1</text>
  </g>
  <g>
    <circle fill="#0000b2" id="pin:Rs2" cx="0" cy="20" r="3"/>
    <text fill="#808080" font-size="18" x="4" y="26">Rs2</text>
  </g>
  
  <g>
    <circle fill="#0000b2" id="pin:We" cx="0" cy="60" r="3"/>
    <text fill="#808080" font-size="18" x="4" y="66">We</text>
  </g>
  <g>
    <circle fill="#0000b2" id="pin:Ws" cx="0" cy="80" r="3"/>
    <text fill="#808080" font-size="18" x="4" y="86">Ws</text>
  </g>
  <g>
    <circle fill="#0000b2" id="pin:Data" cx="0" cy="100" r="3"/>
    <text fill="#808080" font-size="18" x="4" y="106">Data</text>
  </g>
  
  <g>
    <circle fill="#0000b2" id="pin:Clock" cx="0" cy="320" r="3"/>
    <text fill="#808080" font-size="18" x="4" y="326">Clock</text>
  </g>
  <g>
    <circle fill="#0000b2" id="pin:/Reset" cx="0" cy="340" r="3"/>
    <text fill="#808080" font-size="18" x="4" y="346">/Reset</text>
  </g>
  
  <g>
    <circle fill="#b20000" id="pin:Rd1" cx="520" cy="0" r="3"/>
    <text fill="#808080" font-size="18" text-anchor="end" x="516" y="6">Rd1</text>
  </g>
  <g>
    <circle fill="#b20000" id="pin:Rd2" cx="520" cy="20" r="3"/>
    <text fill="#808080" font-size="18" text-anchor="end" x="516" y="26">Rd2</text>
  </g>
  
  <g>
    <rect stroke="black" stroke-width="1" fill="#cccccc" fill-opacity="0.78431374" x="100" y="10" width="140" height="20"/>
    <circle fill="#b20000" id="pin:Disp_R0" cx="240" cy="20" r="3"/>
    <text fill="#808080" font-size="18" text-anchor="end" x="96" y="26">zero/x0</text>
  </g>
  <g>
    <rect stroke="black" stroke-width="1" fill="#ffffff" fill-opacity="0.78431374" x="100" y="30" width="140" height="20"/>
    <circle fill="#b20000" id="pin:Disp_R1" cx="240" cy="40" r="3"/>
    <text fill="#808080" font-size="18" text-anchor="end" x="96" y="46">ra/x1</text>
  </g>
  <g>
    <rect stroke="black" stroke-width="1" fill="#ffffff" fill-opacity="0.78431374" x="100" y="50" width="140" height="20"/>
    <circle fill="#b20000" id="pin:Disp_R2" cx="240" cy="60" r="3"/>
    <text fill="#808080" font-size="18" text-anchor="end" x="96" y="66">sp/x2</text>
  </g>
  <g>
    <rect stroke="black" stroke-width="1" fill="#ffffff" fill-opacity="0.78431374" x="100" y="70" width="140" height="20"/>
    <circle fill="#b20000" id="pin:Disp_R3" cx="240" cy="80" r="3"/>
    <text fill="#808080" font-size="18" text-anchor="end" x="96" y="86">gp/x3</text>
  </g>
  <g>
    <rect stroke="black" stroke-width="1" fill="#ffffff" fill-opacity="0.78431374" x="100" y="90" width="140" height="20"/>
    <circle fill="#b20000" id="pin:Disp_R4" cx="240" cy="100" r="3"/>
    <text fill="#808080" font-size="18" text-anchor="end" x="96" y="106">tp/x4</text>
  </g>
  <g>
    <rect stroke="black" stroke-width="1" fill="#ffffff" fill-opacity="0.78431374" x="100" y="110" width="140" height="20"/>
    <circle fill="#b20000" id="pin:Disp_R5" cx="240" cy="120" r="3"/>
    <text fill="#808080" font-size="18" text-anchor="end" x="96" y="126">t0/x5</text>
  </g>
  <g>
    <rect stroke="black" stroke-width="1" fill="#ffffff" fill-opacity="0.78431374" x="100" y="130" width="140" height="20"/>
    <circle fill="#b20000" id="pin:Disp_R6" cx="240" cy="140" r="3"/>
    <text fill="#808080" font-size="18" text-anchor="end" x="96" y="146">t1/x6</text>
  </g>
  <g>
    <rect stroke="black" stroke-width="1" fill="#ffffff" fill-opacity="0.78431374" x="100" y="150" width="140" height="20"/>
    <circle fill="#b20000" id="pin:Disp_R7" cx="240" cy="160" r="3"/>
    <text fill="#808080" font-size="18" text-anchor="end" x="96" y="166">t2/x7</text>
  </g>
  <g>
    <rect stroke="black" stroke-width="1" fill="#ffffff" fill-opacity="0.78431374" x="100" y="170" width="140" height="20"/>
    <circle fill="#b20000" id="pin:Disp_R8" cx="240" cy="180" r="3"/>
    <text fill="#808080" font-size="18" text-anchor="end" x="96" y="186">s0/x8</text>
  </g>
  <g>
    <rect stroke="black" stroke-width="1" fill="#ffffff" fill-opacity="0.78431374" x="100" y="190" width="140" height="20"/>
    <circle fill="#b20000" id="pin:Disp_R9" cx="240" cy="200" r="3"/>
    <text fill="#808080" font-size="18" text-anchor="end" x="96" y="206">s1/x9</text>
  </g>
  <g>
    <rect stroke="black" stroke-width="1" fill="#ffffff" fill-opacity="0.78431374" x="100" y="210" width="140" height="20"/>
    <circle fill="#b20000" id="pin:Disp_R10" cx="240" cy="220" r="3"/>
    <text fill="#808080" font-size="18" text-anchor="end" x="96" y="226">a0/x10</text>
  </g>
  <g>
    <rect stroke="black" stroke-width="1" fill="#ffffff" fill-opacity="0.78431374" x="100" y="230" width="140" height="20"/>
    <circle fill="#b20000" id="pin:Disp_R11" cx="240" cy="240" r="3"/>
    <text fill="#808080" font-size="18" text-anchor="end" x="96" y="246">a1/x11</text>
  </g>
  <g>
    <rect stroke="black" stroke-width="1" fill="#ffffff" fill-opacity="0.78431374" x="100" y="250" width="140" height="20"/>
    <circle fill="#b20000" id="pin:Disp_R12" cx="240" cy="260" r="3"/>
    <text fill="#808080" font-size="18" text-anchor="end" x="96" y="266">a2/x12</text>
  </g>
  <g>
    <rect stroke="black" stroke-width="1" fill="#ffffff" fill-opacity="0.78431374" x="100" y="270" width="140" height="20"/>
    <circle fill="#b20000" id="pin:Disp_R13" cx="240" cy="280" r="3"/>
    <text fill="#808080" font-size="18" text-anchor="end" x="96" y="286">a3/x13</text>
  </g>
  <g>
    <rect stroke="black" stroke-width="1" fill="#ffffff" fill-opacity="0.78431374" x="100" y="290" width="140" height="20"/>
    <circle fill="#b20000" id="pin:Disp_R14" cx="240" cy="300" r="3"/>
    <text fill="#808080" font-size="18" text-anchor="end" x="96" y="306">a4/x14</text>
  </g>
  <g>
    <rect stroke="black" stroke-width="1" fill="#ffffff" fill-opacity="0.78431374" x="100" y="310" width="140" height="20"/>
    <circle fill="#b20000" id="pin:Disp_R15" cx="240" cy="320" r="3"/>
    <text fill="#808080" font-size="18" text-anchor="end" x="96" y="326">a5/x15</text>
  </g>
  
  <g>
    <rect stroke="black" stroke-width="1" fill="#ffffff" fill-opacity="0.78431374" x="260" y="10" width="140" height="20"/>
    <circle fill="#b20000" id="pin:Disp_R16" cx="400" cy="20" r="3"/>
    <text fill="#808080" font-size="18" x="404" y="26">x16/a6</text>
  </g>
  <g>
    <rect stroke="black" stroke-width="1" fill="#ffffff" fill-opacity="0.78431374" x="260" y="30" width="140" height="20"/>
    <circle fill="#b20000" id="pin:Disp_R17" cx="400" cy="40" r="3"/>
    <text fill="#808080" font-size="18" x="404" y="46">x17/a7</text>
  </g>
  <g>
    <rect stroke="black" stroke-width="1" fill="#ffffff" fill-opacity="0.78431374" x="260" y="50" width="140" height="20"/>
    <circle fill="#b20000" id="pin:Disp_R18" cx="400" cy="60" r="3"/>
    <text fill="#808080" font-size="18" x="404" y="66">x18/s2</text>
  </g>
  <g>
    <rect stroke="black" stroke-width="1" fill="#ffffff" fill-opacity="0.78431374" x="260" y="70" width="140" height="20"/>
    <circle fill="#b20000" id="pin:Disp_R19" cx="400" cy="80" r="3"/>
    <text fill="#808080" font-size="18" x="404" y="86">x19/s3</text>
  </g>
  <g>
    <rect stroke="black" stroke-width="1" fill="#ffffff" fill-opacity="0.78431374" x="260" y="90" width="140" height="20"/>
    <circle fill="#b20000" id="pin:Disp_R20" cx="400" cy="100" r="3"/>
    <text fill="#808080" font-size="18" x="404" y="106">x20/s4</text>
  </g>
  <g>
    <rect stroke="black" stroke-width="1" fill="#ffffff" fill-opacity="0.78431374" x="260" y="110" width="140" height="20"/>
    <circle fill="#b20000" id="pin:Disp_R21" cx="400" cy="120" r="3"/>
    <text fill="#808080" font-size="18" x="404" y="126">x21/s5</text>
  </g>
  <g>
    <rect stroke="black" stroke-width="1" fill="#ffffff" fill-opacity="0.78431374" x="260" y="130" width="140" height="20"/>
    <circle fill="#b20000" id="pin:Disp_R22" cx="400" cy="140" r="3"/>
    <text fill="#808080" font-size="18" x="404" y="146">x22/s6</text>
  </g>
  <g>
    <rect stroke="black" stroke-width="1" fill="#ffffff" fill-opacity="0.78431374" x="260" y="150" width="140" height="20"/>
    <circle fill="#b20000" id="pin:Disp_R23" cx="400" cy="160" r="3"/>
    <text fill="#808080" font-size="18" x="404" y="166">x23/s7</text>
  </g>
  <g>
    <rect stroke="black" stroke-width="1" fill="#ffffff" fill-opacity="0.78431374" x="260" y="170" width="140" height="20"/>
    <circle fill="#b20000" id="pin:Disp_R24" cx="400" cy="180" r="3"/>
    <text fill="#808080" font-size="18" x="404" y="186">x24/s8</text>
  </g>
  <g>
    <rect stroke="black" stroke-width="1" fill="#ffffff" fill-opacity="0.78431374" x="260" y="190" width="140" height="20"/>
    <circle fill="#b20000" id="pin:Disp_R25" cx="400" cy="200" r="3"/>
    <text fill="#808080" font-size="18" x="404" y="206">x25/s9</text>
  </g>
  <g>
    <rect stroke="black" stroke-width="1" fill="#ffffff" fill-opacity="0.78431374" x="260" y="210" width="140" height="20"/>
    <circle fill="#b20000" id="pin:Disp_R26" cx="400" cy="220" r="3"/>
    <text fill="#808080" font-size="18" x="404" y="226">x26/s10</text>
  </g>
  <g>
    <rect stroke="black" stroke-width="1" fill="#ffffff" fill-opacity="0.78431374" x="260" y="230" width="140" height="20"/>
    <circle fill="#b20000" id="pin:Disp_R27" cx="400" cy="240" r="3"/>
    <text fill="#808080" font-size="18" x="404" y="246">x27/s11</text>
  </g>
  <g>
    <rect stroke="black" stroke-width="1" fill="#ffffff" fill-opacity="0.78431374" x="260" y="250" width="140" height="20"/>
    <circle fill="#b20000" id="pin:Disp_R28" cx="400" cy="260" r="3"/>
    <text fill="#808080" font-size="18" x="404" y="266">x28/t3</text>
  </g>
  <g>
    <rect stroke="black" stroke-width="1" fill="#ffffff" fill-opacity="0.78431374" x="260" y="270" width="140" height="20"/>
    <circle fill="#b20000" id="pin:Disp_R29" cx="400" cy="280" r="3"/>
    <text fill="#808080" font-size="18" x="404" y="286">x29/t4</text>
  </g>
  <g>
    <rect stroke="black" stroke-width="1" fill="#ffffff" fill-opacity="0.78431374" x="260" y="290" width="140" height="20"/>
    <circle fill="#b20000" id="pin:Disp_R30" cx="400" cy="300" r="3"/>
    <text fill="#808080" font-size="18" x="404" y="306">x30/t5</text>
  </g>
  <g>
    <rect stroke="black" stroke-width="1" fill="#ffffff" fill-opacity="0.78431374" x="260" y="310" width="140" height="20"/>
    <circle fill="#b20000" id="pin:Disp_R31" cx="400" cy="320" r="3"/>
    <text fill="#808080" font-size="18" x="404" y="326">x31/t6</text>
  </g>
  
</svg>
