<?xml version="1.0" encoding="UTF-8" standalone="no"?>
<svg
   xmlns:dc="http://purl.org/dc/elements/1.1/"
   xmlns:cc="http://creativecommons.org/ns#"
   xmlns:rdf="http://www.w3.org/1999/02/22-rdf-syntax-ns#"
   xmlns:svg="http://www.w3.org/2000/svg"
   xmlns="http://www.w3.org/2000/svg"
   xmlns:sodipodi="http://sodipodi.sourceforge.net/DTD/sodipodi-0.dtd"
   xmlns:inkscape="http://www.inkscape.org/namespaces/inkscape"
   viewBox="-80 -80 320 260"
   version="1.1">
  <sodipodi:namedview showgrid="true">
    <inkscape:grid
       type="xygrid"
       empspacing="4"
       spacingx="5"
       spacingy="5" />
  </sodipodi:namedview>
  <rect stroke="black" stroke-width="4" fill="#b4ffff" fill-opacity="0.78431374" x="0" y="-20" width="180" height="140"/>
    <text id="label" fill="#000000" font-size="24" text-anchor="middle" x="80" y="-30">Label</text>
  <g>
    <circle fill="#0000b2" id="pin:Valid (prev)" cx="0" cy="0" r="3"/>
    <text fill="#808080" font-size="18" x="4" y="6">Valid</text>
  </g>
  <g>
    <circle fill="#b20000" id="pin:Ready (prev)" cx="0" cy="20" r="3"/>
    <text fill="#808080" font-size="18" x="4" y="26">Ready</text>
  </g>
  <g>
    <circle fill="#0000b2" id="pin:Clock" cx="0" cy="60" r="3"/>
    <text fill="#808080" font-size="18" x="4" y="66">Clock</text>
  </g>
  <g>
    <circle fill="#0000b2" id="pin:/Reset" cx="0" cy="80" r="3"/>
    <text fill="#808080" font-size="18" x="4" y="86">/Reset</text>
  </g>
  <g>
    <circle fill="#0000b2" id="pin:Flush" cx="0" cy="100" r="3"/>
    <text fill="#808080" font-size="18" x="4" y="106">Flush</text>
  </g>
  <g>
    <circle fill="#b20000" id="pin:1cc" cx="180" cy="60" r="3"/>
    <text fill="#808080" font-size="18" text-anchor="end" x="176" y="66">1cc</text>
  </g>
  <g>
    <circle fill="#0000b2" id="pin:Done (this)" cx="180" cy="80" r="3"/>
    <text fill="#808080" font-size="18" text-anchor="end" x="176" y="86">Done</text>
  </g>
  <g>
    <circle fill="#b20000" id="pin:Valid (this)" cx="180" cy="0" r="3"/>
    <text fill="#808080" font-size="18" text-anchor="end" x="176" y="6">Valid</text>
  </g>
  <g>
    <circle fill="#0000b2" id="pin:Ready (next)" cx="180" cy="20" r="3"/>
    <text fill="#808080" font-size="18" text-anchor="end" x="176" y="26">Ready</text>
  </g>

  <g>
    <circle fill="#b20000" id="pin:/REG_Clear" cx="20" cy="-20" r="3"/>
  </g>
  <g>
    <circle fill="#b20000" id="pin:REG_Clock" cx="40" cy="-20" r="3"/>
  </g>
  <g>
    <circle fill="#b20000" id="pin:/REG_OE" cx="60" cy="-20" r="3"/>
  </g>

  <g>
    <circle fill="#b20000" id="pin:LED_Valid" cx="40" cy="120" r="3"/>
  </g>
  <g>
    <circle fill="#b20000" id="pin:LED_Busy" cx="80" cy="120" r="3"/>
  </g>
  <g>
    <circle fill="#b20000" id="pin:LED_Waiting" cx="100" cy="120" r="3"/>
  </g>
  <g>
    <circle fill="#b20000" id="pin:LED_Empty" cx="140" cy="120" r="3"/>
  </g>

 </svg>
