<?xml version="1.0" encoding="UTF-8" standalone="no"?>
<svg
   xmlns:dc="http://purl.org/dc/elements/1.1/"
   xmlns:cc="http://creativecommons.org/ns#"
   xmlns:rdf="http://www.w3.org/1999/02/22-rdf-syntax-ns#"
   xmlns:svg="http://www.w3.org/2000/svg"
   xmlns="http://www.w3.org/2000/svg"
   xmlns:sodipodi="http://sodipodi.sourceforge.net/DTD/sodipodi-0.dtd"
   xmlns:inkscape="http://www.inkscape.org/namespaces/inkscape"
   viewBox="-80 -80 320 260"
   version="1.1">
  <sodipodi:namedview showgrid="true">
    <inkscape:grid
       type="xygrid"
       empspacing="4"
       spacingx="5"
       spacingy="5" />
  </sodipodi:namedview>
  <rect stroke="black" stroke-width="4" fill="#b4ffff" fill-opacity="0.78431374" x="0" y="-40" width="180" height="720"/>
    <text id="label" fill="#000000" font-size="24" text-anchor="middle" x="80" y="-30">Label</text>
 
  <g>
    <circle fill="#0000b2" id="pin:PC_in" cx="0" cy="20" r="3"/>
    <text fill="#808080" font-size="18" text-anchor="middle" x="90" y="6">PC</text>
  </g>
  <g>
    <circle fill="#b20000" id="pin:PC_out" cx="180" cy="20" r="3"/>
  </g>
  <g>
    <rect stroke="black" stroke-width="1" fill="#ffffff" fill-opacity="0.78431374" x="20" y="10" width="140" height="20"/>
    <circle fill="#b20000" id="pin:PC_disp" cx="160" cy="20" r="3"/>
  </g>
  
  <g>
    <circle fill="#0000b2" id="pin:PC_nextin" cx="0" cy="60" r="3"/>
    <text fill="#808080" font-size="18" text-anchor="middle" x="90" y="46">PC_next</text>
  </g>
  <g>
    <circle fill="#b20000" id="pin:PC_nextout" cx="180" cy="60" r="3"/>
  </g>
  <g>
    <rect stroke="black" stroke-width="1" fill="#ffffff" fill-opacity="0.78431374" x="20" y="50" width="140" height="20"/>
    <circle fill="#b20000" id="pin:PC_nextdisp" cx="160" cy="60" r="3"/>
  </g>
  
    <g>
    <circle fill="#0000b2" id="pin:wdata_in" cx="0" cy="120" r="3"/>
    <text fill="#808080" font-size="18" text-anchor="middle" x="90" y="106">Mem_wdata</text>
  </g>
  <g>
    <circle fill="#b20000" id="pin:wdata_out" cx="180" cy="120" r="3"/>
  </g>
   <g>
    <rect stroke="black" stroke-width="1" fill="#ffffff" fill-opacity="0.78431374" x="20" y="110" width="140" height="20"/>
    <circle fill="#b20000" id="pin:wdata_disp" cx="160" cy="120" r="3"/>
  </g>
  
    <g>
    <circle fill="#0000b2" id="pin:A_in" cx="0" cy="280" r="3"/>
    <text fill="#808080" font-size="18" text-anchor="middle" x="90" y="266">A</text>
  </g>
  <g>
    <circle fill="#b20000" id="pin:A_out" cx="180" cy="280" r="3"/>
  </g>
   <g>
    <rect stroke="black" stroke-width="1" fill="#ffffff" fill-opacity="0.78431374" x="20" y="270" width="140" height="20"/>
    <circle fill="#b20000" id="pin:A_disp" cx="160" cy="280" r="3"/>
  </g>
  
    <g>
    <circle fill="#0000b2" id="pin:B_in" cx="0" cy="400" r="3"/>
    <text fill="#808080" font-size="18" text-anchor="middle" x="90" y="386">B</text>
  </g>
  <g>
    <circle fill="#b20000" id="pin:B_out" cx="180" cy="400" r="3"/>
  </g>
   <g>
    <rect stroke="black" stroke-width="1" fill="#ffffff" fill-opacity="0.78431374" x="20" y="390" width="140" height="20"/>
    <circle fill="#b20000" id="pin:B_disp" cx="160" cy="400" r="3"/>
  </g>
  
    <g>
    <circle fill="#0000b2" id="pin:Imm_in" cx="0" cy="620" r="3"/>
    <text fill="#808080" font-size="18" text-anchor="middle" x="90" y="606">Imm</text>
  </g>
  <g>
    <circle fill="#b20000" id="pin:Imm_out" cx="180" cy="620" r="3"/>
  </g>
   <g>
    <rect stroke="black" stroke-width="1" fill="#ffffff" fill-opacity="0.78431374" x="20" y="610" width="140" height="20"/>
    <circle fill="#b20000" id="pin:Imm_disp" cx="160" cy="620" r="3"/>
  </g>

  <g>
    <circle fill="#0000b2" id="pin:/REGin_Clear" cx="20" cy="680" r="3"/>
  </g>
  <g>
    <circle fill="#0000b2" id="pin:REGin_Clock" cx="40" cy="680" r="3"/>
  </g>
  <g>
    <circle fill="#0000b2" id="pin:/REGin_OE" cx="60" cy="680" r="3"/>
  </g>
  
    <g>
    <circle fill="#b20000" id="pin:/REGout_Clear" cx="20" cy="-40" r="3"/>
  </g>
  <g>
    <circle fill="#b20000" id="pin:REGout_Clock" cx="40" cy="-40" r="3"/>
  </g>
  <g>
    <circle fill="#b20000" id="pin:/REGout_OE" cx="60" cy="-40" r="3"/>
  </g>

</svg>
